# xmcd
#
# Track frame offsets:
#	150
#	12217
#	26280
#	40397
#	55855
#	65827
#	77127
#	105245
#	120875
#
# Disc length: 1853
#
# Revision: 2
# Processed by: cddbd v1.5.1PL0 Copyright (c) Steve Scherf et al.
# Submitted via: CDex 1.40Beta9
# Normalized: r0:TDELIM( - ),TSWAP
#
DISCID=64073b09
DTITLE=Blues Various - The Blues, Volume 3: Blues Greats
DYEAR=1996
DGENRE=Blues
TTITLE0=Pee Wee Crayton - Need Your Love So Bad
TTITLE1=Roy Milton - R M Blues
TTITLE2=Charles Brown - It's Gettin' to be Evening
TTITLE3=Gatemouth Moore - Everybody Has Their Turn
TTITLE4=John Lee Hooker - Run On
TTITLE5=Ray Charles - A Sentimental Blues
TTITLE6=Johnny Otis - Waitin'
TTITLE7=Charles Brown - Counting My Tears
TTITLE8=Charles Brown - Driftin' Blues
EXTD=YEAR: 1996 ID3G: 0
EXTT0=
EXTT1=
EXTT2=
EXTT3=
EXTT4=
EXTT5=
EXTT6=
EXTT7=
EXTT8=
PLAYORDER=
